<?xml version="1.0" standalone="no"?>
<!DOCTYPE svg PUBLIC "-//W3C//DTD SVG 20010904//EN"
 "http://www.w3.org/TR/2001/REC-SVG-20010904/DTD/svg10.dtd">
<svg version="1.0" xmlns="http://www.w3.org/2000/svg"
 width="262.000000pt" height="262.000000pt" viewBox="0 0 262.000000 262.000000"
 preserveAspectRatio="xMidYMid meet">
<metadata>
Created by potrace 1.14, written by Peter Selinger 2001-2017
</metadata>
<g transform="translate(0.000000,262.000000) scale(0.100000,-0.100000)"
fill="#000000" stroke="none">
<path d="M1620 2111 c-94 -18 -133 -32 -121 -44 6 -6 10 -27 9 -46 l-1 -36 -4
32 c-7 52 -24 58 -80 30 -80 -40 -125 -72 -180 -128 -71 -74 -108 -155 -108
-239 0 -98 34 -138 130 -154 l40 -7 0 118 c0 141 15 182 95 267 107 113 301
157 422 95 54 -28 78 -71 78 -141 0 -62 -10 -92 -52 -155 -19 -29 -24 -43 -15
-46 6 -2 2 -3 -9 -1 -12 2 -27 -3 -34 -11 -15 -17 -98 -50 -107 -41 -3 3 6 67
22 142 23 114 25 138 14 146 -11 8 -11 9 2 5 13 -4 18 2 22 26 2 18 3 34 1 36
-5 6 -238 -30 -245 -37 -6 -8 -220 -1009 -219 -1029 0 -10 31 -13 120 -13 116
0 120 1 125 23 3 12 32 150 66 306 33 157 62 288 65 293 9 15 98 8 134 -10 59
-29 75 -71 74 -192 0 -77 -5 -117 -18 -150 -20 -48 -22 -136 -4 -157 8 -10 6
-13 -8 -13 -17 0 -19 7 -16 52 3 51 3 52 -12 31 -37 -50 -120 -51 -173 -1 -27
25 -35 20 -37 -22 -1 -16 -4 -30 -8 -30 -15 0 -7 -66 11 -96 26 -43 102 -69
179 -61 153 16 274 146 318 343 31 140 9 269 -59 342 -28 30 -37 28 -37 -12 0
-24 5 -36 18 -39 9 -3 1 -5 -18 -6 -19 0 -30 3 -24 7 6 4 13 24 16 46 4 35 2
39 -25 48 l-29 11 46 46 c159 163 110 393 -98 457 -61 18 -204 26 -266 15z
m-51 -68 c-1 -22 -2 -23 -6 -8 -3 11 -10 23 -17 27 -7 5 -5 8 7 8 12 0 17 -7
16 -27z m91 10 c0 -10 -4 -14 -8 -8 -4 6 -11 13 -16 18 -5 4 -2 7 7 7 10 0 17
-8 17 -17z m100 13 c0 -2 3 -13 6 -23 5 -17 5 -17 -6 0 -12 19 -40 23 -40 5 0
-6 -3 -9 -6 -5 -10 10 6 27 27 27 10 0 19 -2 19 -4z m69 -28 c-2 -28 -2 -29
-6 -8 -3 14 -10 28 -17 32 -7 5 -5 8 7 8 13 0 17 -8 16 -32z m91 -12 c0 -26 5
-46 13 -49 6 -3 -1 -6 -17 -6 -23 -1 -27 2 -18 11 17 17 15 54 -4 72 -14 15
-14 16 5 16 18 0 21 -6 21 -44z m-458 -11 c2 -19 0 -35 -4 -35 -4 0 -8 16 -8
35 0 19 2 35 4 35 2 0 6 -16 8 -35z m-41 -18 c-6 -15 -16 -27 -24 -27 -15 0
-37 20 -37 34 0 5 6 2 13 -9 18 -23 37 -11 37 23 0 18 3 23 10 16 7 -7 8 -19
1 -37z m573 -17 c8 0 17 6 19 13 4 9 6 9 6 -1 1 -7 -6 -15 -15 -19 -20 -8 -44
22 -43 51 1 14 4 10 10 -11 5 -18 16 -33 23 -33z m-744 -124 c0 -41 -23 -64
-45 -46 -8 7 -14 20 -14 29 1 13 2 13 6 -1 2 -10 14 -18 25 -18 17 0 20 5 16
39 -2 22 0 37 4 35 5 -3 8 -20 8 -38z m62 -1 c3 -40 1 -45 -17 -44 -11 0 -14
3 -7 6 6 2 12 20 12 38 0 18 -6 36 -12 38 -8 4 -7 6 3 6 13 1 18 -10 21 -44z
m238 31 c-17 -21 -9 -60 14 -64 16 -3 18 1 14 37 -2 23 0 41 4 41 5 0 8 -17 8
-39 0 -46 -22 -70 -45 -51 -15 12 -21 71 -8 83 13 14 25 7 13 -7z m82 -27 c-4
-36 -2 -40 14 -37 15 3 19 12 18 41 -1 20 3 34 7 31 15 -9 10 -71 -6 -84 -29
-24 -60 24 -44 68 12 32 15 27 11 -19z m368 2 c0 -22 5 -42 13 -44 6 -3 -1 -5
-18 -5 -16 0 -24 2 -17 5 6 2 12 20 12 38 0 18 -6 36 -12 38 -8 3 -6 6 5 6 13
1 17 -7 17 -38z m-494 -37 c-3 -8 -11 -14 -18 -14 -9 0 -9 3 0 12 7 7 13 26
13 43 l2 30 4 -28 c3 -16 2 -35 -1 -43z m-276 -118 c0 -26 5 -46 13 -49 6 -3
-1 -5 -18 -5 -16 0 -24 2 -17 5 15 6 16 73 1 73 -5 0 -7 5 -4 10 14 23 25 7
25 -34z m268 35 c8 -5 12 -23 10 -47 -3 -34 -6 -39 -27 -39 -13 0 -26 7 -29
15 -4 12 -2 13 9 3 24 -23 39 -15 39 22 0 22 -6 38 -17 44 -10 6 -13 10 -8 11
6 0 16 -4 23 -9z m90 -3 c25 -25 11 -88 -19 -88 -27 0 -43 38 -30 73 11 29 29
35 49 15z m72 -32 c0 -26 5 -46 13 -49 6 -3 -1 -5 -18 -5 -16 0 -24 2 -17 5
15 6 16 73 1 73 -5 0 -7 5 -4 10 14 23 25 7 25 -34z m260 0 c0 -26 5 -46 13
-49 6 -3 -1 -5 -18 -5 -16 0 -24 2 -17 5 15 6 16 73 1 73 -5 0 -7 5 -4 10 14
23 25 7 25 -34z m78 2 c-1 -37 -2 -39 -5 -10 -2 17 -10 32 -16 32 -7 0 -6 4 3
10 8 5 16 10 18 10 1 0 1 -19 0 -42z m-830 -18 c-2 -19 -10 -36 -18 -38 -13
-5 -13 -3 -1 11 9 11 11 28 7 49 -5 23 -3 29 5 21 6 -6 9 -25 7 -43z m79 -135
c2 -17 1 -17 -3 -2 -4 13 -12 17 -25 14 -10 -3 -19 -1 -19 5 0 19 45 3 47 -17z
m243 -19 c0 -26 5 -46 13 -49 6 -3 -1 -6 -17 -6 -23 -1 -27 2 -18 11 19 19 15
76 -5 81 -14 4 -12 5 5 6 20 1 22 -4 22 -43z m80 6 c0 -21 5 -43 12 -50 9 -9
5 -12 -17 -11 -17 0 -24 3 -17 6 6 2 12 22 12 43 0 21 -6 41 -12 43 -8 3 -6 6
5 6 13 1 17 -7 17 -37z m89 6 c-2 -28 -2 -29 -6 -8 -3 14 -10 28 -17 32 -7 5
-5 8 7 8 13 0 17 -8 16 -32z m91 2 c0 -16 -4 -30 -10 -30 -5 0 -10 11 -10 24
0 13 -6 27 -12 29 -7 3 -3 6 10 6 18 1 22 -4 22 -29z m100 11 c14 -27 13 -44
-6 -67 -14 -18 -15 -18 -4 4 14 29 5 72 -15 72 -8 0 -19 -15 -24 -32 -7 -24
-9 -27 -10 -11 -2 51 37 74 59 34z m70 -25 c0 -26 5 -46 13 -49 6 -3 -1 -6
-17 -6 -23 -1 -27 2 -18 11 16 16 15 75 0 81 -8 3 -6 6 5 6 14 1 17 -7 17 -43z
m-633 12 c-3 -8 -6 -5 -6 6 -1 11 2 17 5 13 3 -3 4 -12 1 -19z m198 -183 c0
-25 -3 -45 -7 -45 -5 0 -8 18 -8 39 0 22 -5 42 -12 44 -7 3 -4 6 7 6 17 1 20
-5 20 -44z m65 30 c-8 -9 -10 -27 -6 -46 3 -18 2 -28 -4 -24 -11 7 -14 68 -3
78 13 14 25 6 13 -8z m42 -7 c5 -36 -3 -66 -19 -73 -13 -4 -14 -3 -3 10 7 8
10 30 8 50 -4 38 8 50 14 13z m328 -23 c0 -25 -4 -45 -10 -45 -5 0 -10 18 -10
39 0 22 -5 42 -12 44 -7 3 -3 6 10 6 20 1 22 -4 22 -44z m80 6 c0 -22 5 -42
13 -44 6 -3 -1 -5 -18 -5 -16 0 -24 2 -17 5 6 2 12 20 12 38 0 18 -6 36 -12
38 -8 3 -6 6 5 6 13 1 17 -7 17 -38z m90 -6 c0 -25 -4 -45 -9 -45 -5 0 -8 18
-7 40 1 28 -4 41 -14 44 -8 2 -5 4 8 5 20 1 22 -4 22 -44z m-690 -5 c0 -22 -3
-40 -8 -40 -4 0 -6 18 -4 40 2 22 6 40 8 40 2 0 4 -18 4 -40z m0 -154 c0 -26
5 -46 13 -49 6 -3 -1 -6 -18 -6 -21 0 -26 2 -16 8 9 6 12 22 9 50 -2 22 0 41
4 41 5 0 8 -20 8 -44z m90 0 c0 -26 5 -46 13 -49 6 -3 -4 -5 -23 -5 -19 0 -27
2 -17 5 14 4 17 13 15 41 -2 24 -8 36 -16 34 -8 -1 -11 2 -7 8 3 5 13 10 21
10 10 0 14 -12 14 -44z m95 34 c4 -6 -1 -7 -10 -3 -34 12 -49 -58 -17 -76 9
-6 12 -11 7 -11 -19 0 -35 23 -35 50 0 39 38 67 55 40z m343 -2 c14 -14 16
-57 3 -76 -16 -26 -46 -9 -49 27 -6 56 16 79 46 49z m94 -13 c13 -29 -2 -75
-25 -75 -33 0 -47 43 -27 81 15 26 38 24 52 -6z m68 0 c0 -14 -2 -25 -4 -25
-2 0 -6 11 -8 25 -3 14 -1 25 3 25 5 0 9 -11 9 -25z m-664 -171 c8 -31 -10
-74 -31 -74 -21 0 -39 43 -31 74 5 19 13 26 31 26 18 0 26 -7 31 -26z m82 -20
c2 -31 -1 -43 -14 -48 -24 -9 -44 12 -44 49 0 38 7 47 35 43 16 -2 21 -12 23
-44z m412 2 c0 -26 5 -46 13 -49 6 -3 -1 -6 -17 -6 -23 -1 -27 2 -18 11 19 19
15 76 -5 81 -14 4 -12 5 5 6 20 1 22 -4 22 -43z m80 0 c0 -25 -3 -47 -8 -50
-4 -2 -6 14 -4 36 3 27 0 43 -9 49 -11 7 -10 9 4 9 14 0 17 -9 17 -44z m-459
3 c-5 -13 -10 -19 -10 -12 -1 15 10 45 15 40 3 -2 0 -15 -5 -28z m-219 -34 c3
-14 1 -25 -3 -25 -5 0 -9 11 -9 25 0 14 2 25 4 25 2 0 6 -11 8 -25z m351 -12
c7 -10 3 -13 -16 -13 -23 0 -24 2 -14 25 7 13 14 19 16 12 2 -7 8 -18 14 -24z
m80 7 c4 -15 0 -20 -14 -20 -17 0 -18 3 -7 20 7 11 13 20 14 20 1 0 4 -9 7
-20z m-333 -95 c8 -9 8 -15 2 -15 -6 0 -12 6 -15 13 -3 9 -7 9 -20 -2 -10 -7
-17 -9 -17 -3 0 9 14 19 31 21 4 1 12 -6 19 -14z m254 -1 c9 -8 16 -21 16 -27
0 -6 -7 -1 -16 11 -13 18 -19 21 -30 11 -9 -7 -14 -8 -14 -1 0 6 6 13 13 15 6
3 13 6 14 6 1 1 9 -6 17 -15z m-354 -4 c0 -5 -7 -7 -15 -4 -8 4 -15 8 -15 10
0 2 7 4 15 4 8 0 15 -4 15 -10z m170 0 c0 -5 -7 -7 -15 -4 -8 4 -15 8 -15 10
0 2 7 4 15 4 8 0 15 -4 15 -10z m259 -17 c-1 -23 -2 -24 -6 -6 -2 12 -12 24
-21 26 -12 3 -10 5 6 6 18 1 22 -4 21 -26z m80 5 c0 -16 -2 -18 -6 -8 -3 8
-11 18 -17 22 -7 5 -4 8 7 8 11 0 17 -7 16 -22z"/>
<path d="M1551 1718 c-10 -29 -3 -58 15 -58 19 0 28 24 20 55 -8 31 -24 32
-35 3z"/>
<path d="M1897 1234 c-4 -4 -7 -23 -7 -41 0 -27 4 -34 18 -31 12 2 17 13 17
37 0 33 -13 49 -28 35z"/>
<path d="M1975 1220 c-8 -26 3 -60 20 -60 8 0 17 9 20 20 8 26 -3 60 -20 60
-8 0 -17 -9 -20 -20z"/>
<path d="M1374 1045 c-6 -24 9 -55 26 -55 11 0 21 46 14 64 -9 24 -33 19 -40
-9z"/>
<path d="M1464 1056 c-9 -25 0 -61 16 -61 10 0 16 12 18 38 2 28 0 37 -13 37
-8 0 -18 -6 -21 -14z"/>
<path d="M937 2084 c-75 -18 -229 -93 -220 -107 3 -6 1 -7 -6 -3 -16 11 -133
-104 -165 -163 -54 -100 -53 -208 2 -264 25 -25 41 -31 88 -35 53 -4 57 -3 48
14 -5 11 -9 62 -9 114 0 81 4 103 26 150 14 30 38 70 53 88 27 31 113 89 120
81 2 -2 -49 -251 -115 -554 -65 -302 -118 -553 -119 -557 0 -5 19 -8 43 -8 61
0 138 -23 211 -63 35 -20 67 -34 70 -31 3 2 4 1 1 -2 -7 -10 242 -200 308
-235 73 -39 150 -48 196 -25 44 23 87 95 106 178 9 39 13 73 10 76 -2 3 -22 0
-44 -6 -104 -32 -207 -10 -391 82 -80 40 -166 81 -192 91 -30 11 -48 24 -48
34 0 9 54 268 120 576 66 308 120 566 120 573 0 17 -137 15 -213 -4z m55 -39
c8 -19 8 -31 0 -50 -27 -59 -80 -3 -56 59 9 25 43 19 56 -9z m68 -19 c0 -26 5
-46 13 -49 6 -3 -4 -6 -23 -6 -28 0 -32 2 -17 10 10 6 17 22 17 39 0 17 -7 33
-17 39 -16 9 -16 10 5 11 19 0 22 -5 22 -44z m77 38 c-3 -3 -12 -4 -19 -1 -8
3 -5 6 6 6 11 1 17 -2 13 -5z m-242 -80 c11 -8 7 -11 -18 -11 -18 0 -26 2 -19
5 6 2 13 22 14 45 1 41 1 41 5 7 2 -19 10 -40 18 -46z m-79 0 c-5 -12 -46 -21
-46 -10 0 2 -3 13 -6 23 -6 17 -6 17 8 -1 18 -23 38 -14 39 17 1 18 2 19 6 4
3 -10 2 -25 -1 -33z m-124 -96 c-16 -16 -15 -50 1 -67 10 -11 9 -13 -3 -9 -27
8 -26 88 2 88 9 0 9 -3 0 -12z m38 -8 c0 -11 -2 -20 -4 -20 -2 0 -6 9 -9 20
-3 11 -1 20 4 20 5 0 9 -9 9 -20z m173 -2 c12 -44 -20 -97 -39 -66 -4 7 -3 8
4 4 19 -12 36 37 23 63 -7 11 -8 21 -3 21 6 0 12 -10 15 -22z m39 -18 c-4 -36
-2 -40 18 -40 20 0 22 4 18 39 -2 22 0 37 4 35 14 -9 8 -71 -7 -84 -22 -18
-45 5 -45 45 0 25 6 45 14 45 1 0 0 -18 -2 -40z m108 1 c0 -22 5 -42 13 -44 6
-3 -1 -5 -18 -5 -16 0 -24 2 -17 5 6 2 12 20 12 38 0 18 -6 36 -12 38 -8 3 -6
6 5 6 13 1 17 -7 17 -38z m-417 -43 c7 -4 -1 -7 -18 -7 -16 0 -24 3 -17 6 6 2
13 21 14 41 l1 37 4 -35 c3 -19 10 -38 16 -42z m-80 -160 c7 -4 -1 -8 -18 -8
-20 0 -26 3 -17 9 8 5 13 23 12 42 -3 52 3 60 7 9 3 -24 10 -48 16 -52z m86
78 c7 -8 11 -30 9 -48 -2 -28 -7 -33 -28 -33 -21 0 -26 5 -28 33 -3 31 11 62
28 62 4 0 13 -6 19 -14z m260 0 c7 -8 11 -30 9 -48 -2 -28 -7 -33 -28 -33 -22
0 -25 5 -28 39 -4 50 22 72 47 42z m71 -30 c0 -34 4 -46 18 -49 9 -3 1 -5 -18
-5 -19 0 -29 2 -22 5 15 6 16 73 1 73 -5 0 -7 5 -4 10 14 23 25 7 25 -34z m89
7 c-2 -31 -3 -33 -6 -10 -3 17 -11 27 -21 27 -15 0 -15 2 -2 10 25 16 30 12
29 -27z m-12 -59 c-3 -3 -12 -4 -19 -1 -8 3 -5 6 6 6 11 1 17 -2 13 -5z m-489
-99 c-3 -3 -9 2 -12 12 -6 14 -5 15 5 6 7 -7 10 -15 7 -18z m89 -10 c2 -27 1
-28 -5 -6 -10 33 -30 38 -41 9 -9 -22 -10 -22 -10 -2 -1 27 8 36 34 32 14 -2
21 -11 22 -33z m257 19 c17 -45 -6 -93 -39 -80 -15 5 -22 76 -8 89 12 13 41 7
47 -9z m66 -28 c0 -26 5 -46 13 -49 6 -3 -1 -5 -18 -5 -16 0 -24 2 -17 5 6 2
12 22 12 43 0 21 -6 41 -12 43 -8 3 -6 6 5 6 14 1 17 -7 17 -43z m-156 -48 c7
-5 4 -8 -6 -8 -12 0 -18 7 -17 23 0 15 2 17 6 7 3 -8 11 -18 17 -22z m6 -122
c0 -41 -23 -64 -45 -46 -8 7 -14 24 -14 39 1 26 1 26 8 -3 3 -16 11 -31 18
-33 15 -5 26 32 19 64 -5 16 -3 22 4 18 5 -3 10 -21 10 -39z m42 32 c-16 -16
-15 -53 2 -67 22 -18 42 23 27 55 -6 13 -7 24 -2 24 23 0 27 -62 6 -84 -30
-30 -63 9 -51 60 4 13 12 24 18 24 9 0 9 -3 0 -12z m83 -30 c0 -36 3 -43 19
-41 13 1 15 -2 7 -10 -17 -17 -41 11 -41 48 0 25 6 45 14 45 1 0 1 -19 1 -42z
m43 6 c-3 -14 -5 -12 -10 9 -3 19 -2 25 4 19 6 -6 8 -18 6 -28z m-179 -138 c7
-8 11 -30 9 -48 -2 -28 -7 -33 -28 -33 -21 0 -26 5 -28 33 -6 58 19 82 47 48z
m71 -30 c0 -26 5 -46 13 -49 6 -3 -1 -5 -18 -5 -16 0 -24 2 -17 5 7 2 12 22
12 44 0 28 -4 38 -12 33 -7 -4 -8 -3 -4 4 15 24 26 10 26 -32z m-146 -142 c11
-27 7 -61 -9 -74 -16 -14 -45 -7 -45 11 0 8 5 8 16 -2 13 -10 17 -10 25 2 14
23 10 57 -8 68 -16 9 -16 10 -2 11 9 0 20 -7 23 -16z m86 -4 c13 -24 3 -67
-17 -74 -33 -13 -54 33 -37 78 9 22 41 20 54 -4z m88 -21 c3 -39 -15 -63 -42
-53 -11 4 -16 18 -16 43 0 44 7 53 35 49 15 -2 21 -12 23 -39z m-180 -131 c7
-7 11 -23 11 -37 -1 -24 -2 -24 -8 4 -3 17 -13 30 -21 30 -8 0 -18 -13 -21
-30 l-7 -30 -1 32 c-1 27 7 39 30 42 3 1 10 -4 17 -11z m86 -4 c18 -17 21 -59
6 -69 -6 -4 -7 5 -4 23 4 19 1 32 -10 41 -21 17 -29 10 -30 -29 -1 -33 -16
-42 -16 -9 0 25 17 59 30 59 5 0 16 -7 24 -16z m85 2 c7 -8 11 -30 9 -48 -2
-28 -7 -33 -28 -33 -21 0 -26 5 -28 33 -3 31 11 62 28 62 4 0 13 -6 19 -14z
m89 -79 c9 -3 1 -5 -18 -5 -19 0 -29 2 -22 5 6 2 13 19 14 36 l1 32 4 -32 c3
-19 11 -34 21 -36z m87 1 c6 -4 -3 -8 -18 -8 -23 0 -26 2 -15 14 7 8 15 11 18
8 3 -4 10 -10 15 -14z m-16 -115 c-2 -35 -2 -35 -6 -8 -3 16 -10 33 -16 37 -8
5 -6 8 6 8 13 0 17 -8 16 -37z m109 -1 c6 -57 -39 -86 -58 -37 -14 37 4 77 33
73 17 -2 23 -11 25 -36z m84 13 c8 -19 8 -31 0 -50 -19 -42 -62 -25 -62 25 0
50 43 67 62 25z m58 -60 c8 0 18 13 22 30 6 29 6 29 5 -5 -2 -25 -7 -36 -21
-38 -23 -5 -36 14 -35 53 2 29 2 29 8 -5 4 -22 12 -35 21 -35z m257 18 c-3
-10 -5 -4 -5 12 0 17 2 24 5 18 2 -7 2 -21 0 -30z m-157 -2 c0 -11 6 -22 13
-24 6 -3 -4 -5 -23 -5 -19 0 -29 2 -22 5 6 2 12 13 12 24 0 10 5 19 10 19 6 0
10 -9 10 -19z m94 -23 c6 -4 -2 -7 -19 -7 -16 0 -24 3 -17 6 6 2 13 14 13 26
1 21 2 21 6 2 3 -11 10 -23 17 -27z m-185 -125 c-2 -31 -3 -33 -6 -10 -3 17
-11 27 -21 27 -15 0 -15 2 -2 10 25 16 30 12 29 -27z m103 12 c8 -18 8 -31 0
-47 l-11 -23 1 25 c2 46 -2 60 -17 60 -17 0 -30 -42 -21 -65 3 -9 2 -13 -4
-10 -14 9 -12 59 2 73 19 19 37 14 50 -13z m67 -7 c-1 -24 -3 -27 -6 -10 -2
12 -12 22 -21 22 -15 0 -15 2 -2 10 25 16 30 12 29 -22z"/>
<path d="M944 2045 c-9 -22 5 -67 19 -62 7 2 13 20 15 40 2 28 0 37 -13 37 -8
0 -18 -7 -21 -15z"/>
<path d="M604 1727 c-10 -27 0 -62 19 -65 16 -3 18 2 15 34 -3 39 -24 57 -34
31z"/>
<path d="M867 1734 c-4 -4 -7 -23 -7 -41 0 -27 4 -34 18 -31 12 2 17 13 17 37
0 33 -13 49 -28 35z"/>
<path d="M862 1533 c4 -51 33 -54 33 -3 0 26 -5 36 -18 38 -16 3 -18 -2 -15
-35z"/>
<path d="M774 1227 c-9 -25 0 -62 16 -62 10 0 15 10 15 34 0 36 -21 54 -31 28z"/>
<path d="M774 1055 c-9 -22 5 -67 19 -62 7 2 13 20 15 40 2 28 0 37 -13 37 -8
0 -18 -7 -21 -15z"/>
<path d="M862 1033 c4 -51 33 -54 33 -3 0 26 -5 36 -18 38 -16 3 -18 -2 -15
-35z"/>
<path d="M867 904 c-4 -4 -7 -22 -7 -41 0 -27 4 -33 21 -33 17 0 20 5 17 37
-3 35 -17 51 -31 37z"/>
<path d="M1122 703 c4 -51 33 -54 33 -3 0 26 -5 36 -18 38 -16 3 -18 -2 -15
-35z"/>
<path d="M1205 720 c-8 -26 3 -60 20 -60 15 0 25 32 18 60 -3 11 -11 20 -18
20 -8 0 -17 -9 -20 -20z"/>
</g>
</svg>
